<?xml version="1.0" standalone="no"?>
<!DOCTYPE svg PUBLIC "-//W3C//DTD SVG 20010904//EN"
 "http://www.w3.org/TR/2001/REC-SVG-20010904/DTD/svg10.dtd">
<svg version="1.0" xmlns="http://www.w3.org/2000/svg"
 width="488.000000pt" height="488.000000pt" viewBox="0 0 488.000000 488.000000"
 preserveAspectRatio="xMidYMid meet">

<g transform="translate(0.000000,488.000000) scale(0.100000,-0.100000)"
fill="#000000" stroke="none">
<path d="M1769 4245 c-152 -49 -238 -186 -227 -360 8 -121 4 -117 613 -725
487 -486 715 -723 715 -744 0 -3 -67 -72 -148 -154 -81 -81 -241 -241 -353
-357 -113 -115 -317 -320 -454 -455 -373 -370 -379 -378 -373 -526 3 -78 8
-100 37 -158 34 -69 90 -122 161 -153 42 -18 206 -19 259 -2 64 21 139 90 542
495 218 220 519 520 670 668 474 467 514 517 512 647 -2 113 -34 168 -205 353
-182 196 -1297 1297 -1402 1384 -109 91 -236 123 -347 87z"/>
</g>
</svg>
